<svg xmlns="http://www.w3.org/2000/svg" xmlns:xlink="http://www.w3.org/1999/xlink" width="500" zoomAndPan="magnify" viewBox="0 0 375 374.999991" height="500" preserveAspectRatio="xMidYMid meet" version="1.0"><defs><g/><clipPath id="48553b0888"><path d="M 18 158.480469 L 97 158.480469 L 97 228 L 18 228 Z M 18 158.480469 " clip-rule="nonzero"/></clipPath></defs><path fill="#f36933" d="M 21.664062 185.214844 C 26.5 170.316406 38.265625 162.40625 50.472656 160.726562 C 46.351562 165.746094 43.832031 172.316406 43.832031 179.535156 C 43.832031 195.28125 55.730469 208.046875 70.414062 208.046875 C 78.632812 208.046875 85.984375 204.039062 90.859375 197.746094 C 87.519531 216.039062 64.882812 230.632812 48.550781 229.835938 C 23.425781 228.609375 13.289062 211.007812 21.664062 185.214844 Z M 21.664062 185.214844 " fill-opacity="1" fill-rule="nonzero"/><g clip-path="url(#48553b0888)"><path fill="#000000" d="M 21.363281 227.644531 C 21.746094 227.644531 22.625 227.515625 23.179688 226.417969 C 27.066406 219.050781 33.894531 220.882812 37.765625 222.730469 C 38.238281 223.136719 38.683594 223.355469 39.027344 223.523438 C 39.167969 223.59375 39.316406 223.636719 39.472656 223.667969 C 48.730469 228.542969 61.128906 228.507812 72.746094 223.558594 C 82.183594 219.738281 90.941406 212.414062 96.734375 203.46875 C 97.160156 202.816406 97.0625 201.957031 96.5 201.421875 C 95.941406 200.882812 95.078125 200.8125 94.4375 201.257812 C 91.757812 203.117188 89.09375 204.90625 85.964844 206.269531 C 75.078125 211.195312 64.191406 211.601562 55.660156 207.515625 C 67.582031 198.09375 77.605469 186.175781 85.105469 176.695312 C 86.667969 174.800781 88.320312 172.8125 89.445312 170.785156 C 89.828125 170.089844 89.652344 169.214844 89.027344 168.726562 C 88.398438 168.234375 87.503906 168.265625 86.921875 168.804688 C 81.296875 173.945312 73.699219 179.78125 67.328125 184.332031 C 69.851562 181.320312 72.078125 178.503906 73.835938 176.210938 C 81.332031 166.445312 81.210938 166.332031 80.089844 165.21875 C 79.453125 164.59375 78.414062 164.601562 77.78125 165.222656 C 61.285156 181.644531 45.660156 191.726562 43.246094 193.246094 C 43.183594 193.019531 43.128906 192.804688 43.089844 192.613281 C 40.589844 182.421875 43.359375 171.042969 50.671875 161.324219 C 51.136719 160.707031 51.097656 159.847656 50.582031 159.269531 C 50.066406 158.691406 49.210938 158.5625 48.546875 158.949219 C 30.507812 169.476562 20.554688 189.230469 24.878906 205.921875 C 24.90625 206.023438 24.941406 206.125 24.984375 206.21875 C 18.507812 214.503906 18.167969 223.445312 19.480469 226.28125 C 20.039062 227.492188 20.964844 227.640625 21.335938 227.648438 C 21.34375 227.644531 21.351562 227.644531 21.363281 227.644531 Z M 20.289062 224.925781 C 20.289062 224.929688 20.285156 224.933594 20.285156 224.9375 C 20.285156 224.933594 20.289062 224.929688 20.289062 224.925781 Z M 88.566406 208.648438 C 83.699219 213.851562 77.757812 218.035156 71.488281 220.570312 C 60.628906 225.207031 49.125 225.230469 40.699219 220.648438 C 40.53125 220.558594 40.355469 220.496094 40.171875 220.464844 C 40.039062 220.394531 39.9375 220.324219 39.835938 220.226562 C 39.710938 220.105469 39.570312 220.003906 39.414062 219.925781 C 36.648438 218.566406 27.941406 215.113281 22.125 222.136719 C 22.222656 218.828125 23.417969 213.175781 28.046875 207.585938 C 28.453125 207.09375 28.53125 206.410156 28.25 205.835938 C 28.164062 205.503906 28.097656 205.242188 27.984375 204.976562 C 24.636719 191.773438 31.125 176.429688 43.75 166.191406 C 39.167969 175 37.757812 184.566406 39.90625 193.320312 C 40.066406 194.117188 40.417969 195.226562 40.851562 196.296875 C 41.027344 196.730469 41.375 197.058594 41.816406 197.214844 C 42.253906 197.371094 42.734375 197.332031 43.144531 197.113281 C 43.730469 196.789062 44.214844 196.492188 44.683594 196.171875 C 45.5625 195.625 55.109375 189.640625 67.210938 179.34375 C 63.96875 183.34375 60.234375 187.695312 56.410156 191.632812 C 55.847656 192.21875 55.800781 193.121094 56.296875 193.757812 C 56.796875 194.394531 57.695312 194.570312 58.394531 194.167969 C 62.269531 191.945312 70.101562 186.558594 77.703125 180.679688 C 70.574219 189.289062 61.773438 198.882812 51.703125 206.460938 C 51.273438 206.789062 51.03125 207.304688 51.0625 207.84375 C 51.089844 208.382812 51.382812 208.867188 51.84375 209.148438 C 61.578125 214.980469 74.496094 215.019531 87.289062 209.230469 C 87.722656 209.042969 88.148438 208.847656 88.566406 208.648438 Z M 26.449219 205.519531 L 26.417969 205.519531 Z M 26.449219 205.519531 " fill-opacity="1" fill-rule="nonzero"/></g><g fill="#000000" fill-opacity="1"><g transform="translate(103.848788, 204.284667)"><g><path d="M 1.867188 -0.441406 C 2.375 -0.269531 2.929688 -0.109375 3.53125 0.03125 C 4.558594 0.269531 5.96875 0.507812 7.597656 0.507812 C 10.019531 0.507812 11.855469 -0.175781 13.074219 -1.3125 C 14.277344 -2.453125 14.894531 -4.050781 14.894531 -5.871094 C 14.894531 -7.375 14.292969 -8.59375 13.359375 -9.65625 C 12.425781 -10.714844 11.222656 -11.601562 9.988281 -12.425781 C 8.753906 -13.246094 7.535156 -14.023438 6.601562 -14.863281 C 5.667969 -15.683594 5.066406 -16.570312 5.066406 -17.632812 C 5.066406 -18.535156 5.460938 -19.324219 6.15625 -19.878906 C 6.835938 -20.433594 7.804688 -20.765625 8.941406 -20.765625 C 9.527344 -20.765625 10.066406 -20.703125 10.523438 -20.558594 C 11.460938 -20.289062 12.109375 -19.910156 12.503906 -19.609375 C 12.695312 -19.453125 12.820312 -19.355469 12.882812 -19.324219 L 13.230469 -21.429688 C 12.898438 -21.605469 12.535156 -21.746094 12.109375 -21.890625 C 11.363281 -22.125 10.304688 -22.347656 8.972656 -22.347656 C 6.695312 -22.347656 5.015625 -21.777344 3.910156 -20.78125 C 2.800781 -19.785156 2.246094 -18.375 2.246094 -16.667969 C 2.246094 -15.226562 2.863281 -14.054688 3.765625 -13.027344 C 4.667969 -11.996094 5.886719 -11.109375 7.105469 -10.273438 C 8.324219 -9.433594 9.542969 -8.625 10.445312 -7.738281 C 11.347656 -6.851562 11.964844 -5.886719 11.964844 -4.75 C 11.964844 -3.878906 11.617188 -2.960938 10.921875 -2.261719 C 10.222656 -1.550781 9.164062 -1.058594 7.753906 -1.058594 C 7.011719 -1.058594 6.300781 -1.140625 5.648438 -1.28125 C 4.320312 -1.582031 3.277344 -1.945312 2.277344 -2.5 Z M 1.867188 -0.441406 "/></g></g></g><g fill="#000000" fill-opacity="1"><g transform="translate(120.335238, 204.284667)"><g><path d="M 23.742188 0 C 23.867188 -0.539062 24.027344 -1.15625 24.199219 -1.867188 C 24.5 -3.070312 24.960938 -4.796875 25.578125 -6.964844 L 27.855469 -14.847656 C 28.09375 -15.714844 28.347656 -16.554688 28.601562 -17.394531 C 29.089844 -19.054688 29.519531 -20.449219 29.960938 -21.839844 L 27.414062 -21.839844 C 27.300781 -21.273438 27.160156 -20.625 27.015625 -19.894531 C 26.75 -18.644531 26.367188 -16.933594 25.863281 -14.847656 L 22.808594 -3.515625 L 16.949219 -18.058594 L 15.179688 -18.027344 L 10.859375 -7.691406 C 10.542969 -6.980469 10.222656 -6.269531 9.921875 -5.570312 C 9.605469 -4.859375 9.289062 -4.164062 8.988281 -3.449219 C 8.6875 -4.589844 8.339844 -5.949219 7.960938 -7.421875 C 7.566406 -8.878906 7.152344 -10.445312 6.773438 -11.964844 C 6.378906 -13.46875 6 -14.925781 5.683594 -16.207031 C 5.191406 -18.1875 4.890625 -19.59375 4.714844 -20.511719 C 4.621094 -20.972656 4.558594 -21.304688 4.527344 -21.523438 L 4.480469 -21.839844 L 0.191406 -21.839844 C 0.363281 -21.414062 0.554688 -20.859375 0.757812 -20.210938 C 1.125 -19.070312 1.628906 -17.363281 2.3125 -14.910156 L 6.363281 0 L 9.734375 0 C 9.734375 -0.046875 9.796875 -0.222656 9.941406 -0.539062 C 10.035156 -0.777344 10.175781 -1.125 10.351562 -1.613281 C 10.523438 -2.089844 10.730469 -2.660156 10.984375 -3.308594 C 11.476562 -4.621094 12.109375 -6.285156 12.851562 -8.121094 L 15.179688 -13.5625 L 17.472656 -7.804688 C 18.1875 -5.96875 18.753906 -4.414062 19.199219 -3.132812 C 19.640625 -1.851562 20.023438 -0.808594 20.339844 0 Z M 23.742188 0 "/></g></g></g><g fill="#000000" fill-opacity="1"><g transform="translate(150.475998, 204.284667)"><g><path d="M 2.914062 -6.964844 C 2.914062 -5.238281 2.847656 -3.515625 2.785156 -2.183594 C 2.738281 -1.410156 2.707031 -0.679688 2.675781 0 L 6.726562 0 C 6.664062 -0.679688 6.617188 -1.410156 6.570312 -2.183594 C 6.488281 -3.515625 6.425781 -5.238281 6.425781 -6.964844 L 6.425781 -10.761719 C 7.453125 -10.746094 8.324219 -10.714844 9.054688 -10.699219 C 10.492188 -10.636719 11.460938 -10.589844 12.15625 -10.523438 L 12.15625 -12.597656 C 11.808594 -12.566406 11.363281 -12.535156 10.824219 -12.503906 C 9.890625 -12.457031 8.46875 -12.410156 6.425781 -12.359375 L 6.425781 -20.257812 C 7.519531 -20.226562 8.5 -20.179688 9.355469 -20.132812 C 11.0625 -20.023438 12.296875 -19.910156 13.328125 -19.769531 L 13.328125 -21.839844 L 2.613281 -21.839844 L 2.753906 -19.640625 C 2.832031 -18.3125 2.914062 -16.585938 2.914062 -14.832031 Z M 2.914062 -6.964844 "/></g></g></g><g fill="#000000" fill-opacity="1"><g transform="translate(164.794842, 204.284667)"><g><path d="M 10.414062 0 C 10.367188 -0.679688 10.335938 -1.410156 10.304688 -2.183594 C 10.242188 -3.515625 10.191406 -5.238281 10.191406 -6.964844 L 10.191406 -20.257812 C 11.125 -20.242188 11.964844 -20.195312 12.742188 -20.148438 C 14.277344 -20.023438 15.480469 -19.910156 16.570312 -19.769531 L 16.570312 -21.839844 L 0.300781 -21.839844 L 0.300781 -19.769531 C 0.886719 -19.832031 1.535156 -19.894531 2.214844 -19.957031 C 3.402344 -20.070312 4.953125 -20.195312 6.664062 -20.257812 L 6.664062 -6.964844 C 6.664062 -5.238281 6.601562 -3.515625 6.535156 -2.183594 C 6.488281 -1.410156 6.457031 -0.679688 6.425781 0 Z M 10.414062 0 "/></g></g></g><g fill="#000000" fill-opacity="1"><g transform="translate(181.61354, 204.284667)"><g/></g></g><g fill="#000000" fill-opacity="1"><g transform="translate(190.726968, 204.284667)"><g><path d="M 2.929688 -6.964844 C 2.929688 -5.238281 2.863281 -3.515625 2.800781 -2.183594 C 2.753906 -1.410156 2.722656 -0.679688 2.691406 0 L 13.546875 0 L 13.546875 -2.074219 C 13.136719 -1.996094 12.597656 -1.914062 11.949219 -1.851562 C 10.824219 -1.742188 9.101562 -1.613281 6.570312 -1.566406 C 6.519531 -2.183594 6.503906 -2.992188 6.488281 -3.925781 C 6.472656 -4.859375 6.457031 -5.902344 6.457031 -6.964844 L 6.457031 -13.800781 C 6.457031 -14.75 6.472656 -15.699219 6.488281 -16.667969 C 6.535156 -18.566406 6.585938 -20.164062 6.648438 -21.128906 C 6.664062 -21.605469 6.679688 -21.839844 6.679688 -21.839844 L 2.691406 -21.839844 C 2.722656 -21.144531 2.753906 -20.417969 2.800781 -19.640625 C 2.863281 -18.3125 2.929688 -16.585938 2.929688 -14.832031 Z M 2.929688 -6.964844 "/></g></g></g><g fill="#000000" fill-opacity="1"><g transform="translate(204.349653, 204.284667)"><g><path d="M 13.421875 0 L 13.421875 -2.074219 C 12.929688 -1.996094 12.359375 -1.929688 11.695312 -1.867188 C 10.542969 -1.757812 8.847656 -1.613281 6.550781 -1.566406 L 6.503906 -2.644531 C 6.488281 -3.039062 6.488281 -3.480469 6.472656 -3.941406 C 6.441406 -4.875 6.425781 -5.902344 6.425781 -6.964844 L 6.425781 -10.890625 C 7.453125 -10.875 8.324219 -10.839844 9.054688 -10.824219 C 10.492188 -10.761719 11.460938 -10.714844 12.15625 -10.652344 L 12.15625 -12.726562 C 11.808594 -12.695312 11.363281 -12.660156 10.824219 -12.628906 C 9.890625 -12.582031 8.46875 -12.535156 6.425781 -12.488281 L 6.425781 -20.257812 C 7.519531 -20.226562 8.5 -20.179688 9.355469 -20.132812 C 11.046875 -20.023438 12.28125 -19.910156 13.3125 -19.769531 L 13.3125 -21.839844 L 2.59375 -21.839844 L 2.738281 -19.640625 C 2.816406 -18.3125 2.894531 -16.585938 2.894531 -14.832031 L 2.894531 -6.964844 C 2.894531 -5.238281 2.832031 -3.515625 2.769531 -2.183594 C 2.722656 -1.410156 2.691406 -0.679688 2.660156 0 Z M 13.421875 0 "/></g></g></g><g fill="#000000" fill-opacity="1"><g transform="translate(219.000764, 204.284667)"><g><path d="M 3.578125 -6.742188 C 3.230469 -5.917969 2.863281 -5.113281 2.5 -4.304688 C 1.742188 -2.707031 1.109375 -1.34375 0.410156 0 L 3.179688 0 C 3.179688 -0.0625 3.277344 -0.347656 3.464844 -0.871094 L 4.226562 -2.878906 C 4.859375 -4.527344 5.730469 -6.742188 6.679688 -9.085938 C 7.167969 -9.132812 7.929688 -9.164062 9.371094 -9.164062 L 11.507812 -9.164062 C 12.28125 -9.164062 12.867188 -9.148438 13.3125 -9.132812 C 13.753906 -9.117188 14.070312 -9.085938 14.324219 -9.070312 L 14.480469 -8.65625 C 14.734375 -8.023438 14.988281 -7.375 15.242188 -6.710938 C 15.730469 -5.367188 16.175781 -4.066406 16.554688 -2.929688 C 16.917969 -1.789062 17.203125 -0.917969 17.347656 -0.410156 L 17.441406 0 L 22.015625 0 C 21.714844 -0.570312 21.398438 -1.21875 21.050781 -1.945312 C 20.464844 -3.195312 19.6875 -4.890625 18.867188 -6.980469 L 12.851562 -21.984375 L 10.050781 -21.730469 Z M 13.722656 -10.699219 C 13.214844 -10.683594 12.644531 -10.667969 11.523438 -10.667969 L 8.039062 -10.667969 C 7.738281 -10.667969 7.488281 -10.683594 7.28125 -10.699219 L 10.589844 -18.644531 Z M 13.722656 -10.699219 "/></g></g></g><g fill="#000000" fill-opacity="1"><g transform="translate(241.420433, 204.284667)"><g><path d="M 20.65625 -0.441406 C 20.304688 -0.554688 19.894531 -0.855469 19.421875 -1.378906 C 19.023438 -1.820312 18.519531 -2.453125 17.933594 -3.402344 C 17.347656 -4.351562 16.683594 -5.601562 15.921875 -7.25 C 15.398438 -8.46875 14.578125 -9.496094 13.675781 -10.273438 C 12.773438 -11.046875 11.777344 -11.570312 10.890625 -11.808594 C 12.359375 -11.996094 13.628906 -12.488281 14.515625 -13.328125 C 15.398438 -14.148438 15.921875 -15.335938 15.921875 -16.902344 C 15.921875 -17.933594 15.652344 -18.914062 15.082031 -19.6875 C 14.515625 -20.449219 13.660156 -21.050781 12.503906 -21.367188 C 11.09375 -21.824219 9.84375 -21.953125 8.625 -21.953125 C 8.007812 -21.953125 7.390625 -21.9375 6.773438 -21.90625 C 6.15625 -21.859375 5.492188 -21.839844 4.8125 -21.839844 L 2.628906 -21.839844 L 2.769531 -19.640625 C 2.832031 -18.3125 2.914062 -16.585938 2.914062 -14.832031 L 2.914062 -7.992188 C 2.914062 -7.359375 2.914062 -6.726562 2.894531 -6.09375 C 2.878906 -4.8125 2.847656 -3.609375 2.816406 -2.578125 C 2.785156 -1.550781 2.753906 -0.777344 2.722656 -0.332031 C 2.707031 -0.109375 2.691406 0 2.691406 0 L 6.742188 0 C 6.679688 -0.679688 6.632812 -1.410156 6.585938 -2.183594 C 6.503906 -3.515625 6.441406 -5.238281 6.441406 -6.964844 L 6.441406 -20.402344 C 6.679688 -20.402344 6.902344 -20.402344 7.089844 -20.417969 C 7.46875 -20.417969 7.804688 -20.433594 8.121094 -20.449219 L 8.609375 -20.449219 C 9.765625 -20.402344 10.761719 -20.179688 11.476562 -19.609375 C 12.171875 -19.039062 12.597656 -18.121094 12.597656 -16.667969 C 12.597656 -15.464844 12.25 -14.609375 11.742188 -14.023438 C 11.238281 -13.4375 10.574219 -13.105469 9.90625 -12.914062 C 9.242188 -12.726562 8.578125 -12.695312 8.136719 -12.695312 L 7.535156 -12.695312 L 7.960938 -11.253906 C 8.421875 -11.222656 8.894531 -11.046875 9.402344 -10.730469 C 9.828125 -10.460938 10.320312 -10.050781 10.824219 -9.433594 C 11.332031 -8.800781 11.871094 -7.960938 12.378906 -6.835938 C 13.058594 -5.128906 13.832031 -3.609375 14.71875 -2.421875 C 15.605469 -1.21875 16.585938 -0.363281 17.710938 0 C 18.390625 0.175781 18.976562 0.253906 19.5 0.207031 C 19.671875 0.191406 19.832031 0.160156 19.972656 0.125 C 20.242188 0.078125 20.433594 0 20.574219 -0.0625 Z M 20.65625 -0.441406 "/></g></g></g><g fill="#000000" fill-opacity="1"><g transform="translate(261.530095, 204.284667)"><g><path d="M 21.050781 0 L 20.957031 -1.867188 C 20.90625 -3.070312 20.859375 -4.8125 20.859375 -6.980469 L 20.859375 -14.308594 C 20.859375 -15.035156 20.859375 -15.765625 20.875 -16.507812 C 20.890625 -17.964844 20.921875 -19.308594 20.941406 -20.433594 C 20.957031 -20.988281 20.957031 -21.460938 20.957031 -21.839844 L 18.421875 -21.839844 C 18.488281 -21.160156 18.550781 -20.402344 18.613281 -19.546875 C 18.722656 -18.089844 18.835938 -16.015625 18.914062 -13.484375 L 19.039062 -5.175781 C 18.867188 -5.316406 18.628906 -5.554688 18.328125 -5.886719 C 17.710938 -6.519531 16.886719 -7.4375 15.90625 -8.546875 C 14.925781 -9.65625 13.816406 -10.890625 12.679688 -12.21875 L 10.96875 -14.179688 C 8.972656 -16.492188 6.789062 -19.039062 4.398438 -21.839844 L 2.722656 -21.839844 L 2.816406 -19.972656 C 2.863281 -18.769531 2.914062 -17.046875 2.914062 -14.878906 L 2.914062 -7.566406 C 2.914062 -6.835938 2.914062 -6.109375 2.894531 -5.367188 C 2.878906 -3.894531 2.847656 -2.546875 2.832031 -1.425781 C 2.816406 -0.855469 2.816406 -0.378906 2.816406 0 L 5.351562 0 L 5.300781 -0.679688 C 5.253906 -1.125 5.222656 -1.726562 5.175781 -2.5 C 5.082031 -4.019531 4.953125 -6.109375 4.875 -8.371094 L 4.765625 -16.207031 C 4.984375 -16.066406 5.367188 -15.730469 5.902344 -15.195312 C 6.425781 -14.65625 7.058594 -13.992188 7.785156 -13.214844 C 9.242188 -11.632812 11.015625 -9.65625 12.726562 -7.691406 C 14.734375 -5.398438 16.933594 -2.832031 19.355469 0 Z M 21.050781 0 "/></g></g></g><g fill="#000000" fill-opacity="1"><g transform="translate(285.294634, 204.284667)"><g><path d="M 2.914062 -6.964844 C 2.914062 -5.238281 2.847656 -3.515625 2.785156 -2.183594 C 2.738281 -1.410156 2.707031 -0.679688 2.675781 0 L 6.664062 0 C 6.617188 -0.679688 6.585938 -1.410156 6.535156 -2.183594 C 6.472656 -3.515625 6.425781 -5.238281 6.425781 -6.964844 L 6.425781 -14.832031 C 6.425781 -15.699219 6.441406 -16.554688 6.457031 -17.394531 C 6.503906 -19.054688 6.585938 -20.449219 6.664062 -21.839844 L 2.675781 -21.839844 C 2.707031 -21.144531 2.738281 -20.417969 2.785156 -19.640625 C 2.847656 -18.3125 2.914062 -16.585938 2.914062 -14.832031 Z M 2.914062 -6.964844 "/></g></g></g><g fill="#000000" fill-opacity="1"><g transform="translate(294.645395, 204.284667)"><g><path d="M 21.050781 0 L 20.957031 -1.867188 C 20.90625 -3.070312 20.859375 -4.8125 20.859375 -6.980469 L 20.859375 -14.308594 C 20.859375 -15.035156 20.859375 -15.765625 20.875 -16.507812 C 20.890625 -17.964844 20.921875 -19.308594 20.941406 -20.433594 C 20.957031 -20.988281 20.957031 -21.460938 20.957031 -21.839844 L 18.421875 -21.839844 C 18.488281 -21.160156 18.550781 -20.402344 18.613281 -19.546875 C 18.722656 -18.089844 18.835938 -16.015625 18.914062 -13.484375 L 19.039062 -5.175781 C 18.867188 -5.316406 18.628906 -5.554688 18.328125 -5.886719 C 17.710938 -6.519531 16.886719 -7.4375 15.90625 -8.546875 C 14.925781 -9.65625 13.816406 -10.890625 12.679688 -12.21875 L 10.96875 -14.179688 C 8.972656 -16.492188 6.789062 -19.039062 4.398438 -21.839844 L 2.722656 -21.839844 L 2.816406 -19.972656 C 2.863281 -18.769531 2.914062 -17.046875 2.914062 -14.878906 L 2.914062 -7.566406 C 2.914062 -6.835938 2.914062 -6.109375 2.894531 -5.367188 C 2.878906 -3.894531 2.847656 -2.546875 2.832031 -1.425781 C 2.816406 -0.855469 2.816406 -0.378906 2.816406 0 L 5.351562 0 L 5.300781 -0.679688 C 5.253906 -1.125 5.222656 -1.726562 5.175781 -2.5 C 5.082031 -4.019531 4.953125 -6.109375 4.875 -8.371094 L 4.765625 -16.207031 C 4.984375 -16.066406 5.367188 -15.730469 5.902344 -15.195312 C 6.425781 -14.65625 7.058594 -13.992188 7.785156 -13.214844 C 9.242188 -11.632812 11.015625 -9.65625 12.726562 -7.691406 C 14.734375 -5.398438 16.933594 -2.832031 19.355469 0 Z M 21.050781 0 "/></g></g></g><g fill="#000000" fill-opacity="1"><g transform="translate(318.409933, 204.284667)"><g><path d="M 18.945312 -21.207031 C 18.550781 -21.414062 18.058594 -21.605469 17.472656 -21.777344 C 16.460938 -22.078125 14.988281 -22.347656 12.960938 -22.347656 C 9.71875 -22.347656 6.726562 -21.445312 4.527344 -19.5625 C 2.328125 -17.679688 0.949219 -14.832031 0.949219 -10.90625 C 0.949219 -7.421875 2.199219 -4.558594 4.320312 -2.59375 C 6.441406 -0.617188 9.449219 0.507812 13.011719 0.507812 C 13.976562 0.507812 14.894531 0.425781 15.765625 0.269531 C 17.503906 -0.03125 18.929688 -0.394531 20.273438 -0.964844 C 20.210938 -1.472656 20.164062 -2.105469 20.117188 -2.929688 C 20.054688 -3.75 20.039062 -4.699219 20.039062 -5.539062 L 20.039062 -11.109375 L 14.308594 -11.300781 L 14.308594 -9.542969 C 14.578125 -9.589844 14.957031 -9.640625 15.527344 -9.65625 L 16.539062 -9.703125 C 16.554688 -8.183594 16.632812 -6.585938 16.699219 -5.207031 C 16.761719 -3.8125 16.839844 -2.613281 16.917969 -1.898438 C 16.523438 -1.726562 15.953125 -1.535156 15.257812 -1.359375 C 14.546875 -1.1875 13.707031 -1.058594 12.742188 -1.058594 C 10.273438 -1.078125 8.292969 -2.214844 6.917969 -4.003906 C 5.523438 -5.792969 4.765625 -8.246094 4.765625 -10.953125 C 4.765625 -13.296875 5.285156 -15.164062 6.109375 -16.617188 C 6.933594 -18.074219 8.054688 -19.105469 9.289062 -19.785156 C 10.523438 -20.464844 11.855469 -20.765625 13.074219 -20.765625 C 13.992188 -20.765625 14.78125 -20.671875 15.464844 -20.496094 C 16.808594 -20.132812 17.757812 -19.6875 18.503906 -19.054688 Z M 18.945312 -21.207031 "/></g></g></g><g fill="#000000" fill-opacity="1"><g transform="translate(340.03851, 204.284667)"><g><path d="M 1.867188 -0.441406 C 2.375 -0.269531 2.929688 -0.109375 3.53125 0.03125 C 4.558594 0.269531 5.96875 0.507812 7.597656 0.507812 C 10.019531 0.507812 11.855469 -0.175781 13.074219 -1.3125 C 14.277344 -2.453125 14.894531 -4.050781 14.894531 -5.871094 C 14.894531 -7.375 14.292969 -8.59375 13.359375 -9.65625 C 12.425781 -10.714844 11.222656 -11.601562 9.988281 -12.425781 C 8.753906 -13.246094 7.535156 -14.023438 6.601562 -14.863281 C 5.667969 -15.683594 5.066406 -16.570312 5.066406 -17.632812 C 5.066406 -18.535156 5.460938 -19.324219 6.15625 -19.878906 C 6.835938 -20.433594 7.804688 -20.765625 8.941406 -20.765625 C 9.527344 -20.765625 10.066406 -20.703125 10.523438 -20.558594 C 11.460938 -20.289062 12.109375 -19.910156 12.503906 -19.609375 C 12.695312 -19.453125 12.820312 -19.355469 12.882812 -19.324219 L 13.230469 -21.429688 C 12.898438 -21.605469 12.535156 -21.746094 12.109375 -21.890625 C 11.363281 -22.125 10.304688 -22.347656 8.972656 -22.347656 C 6.695312 -22.347656 5.015625 -21.777344 3.910156 -20.78125 C 2.800781 -19.785156 2.246094 -18.375 2.246094 -16.667969 C 2.246094 -15.226562 2.863281 -14.054688 3.765625 -13.027344 C 4.667969 -11.996094 5.886719 -11.109375 7.105469 -10.273438 C 8.324219 -9.433594 9.542969 -8.625 10.445312 -7.738281 C 11.347656 -6.851562 11.964844 -5.886719 11.964844 -4.75 C 11.964844 -3.878906 11.617188 -2.960938 10.921875 -2.261719 C 10.222656 -1.550781 9.164062 -1.058594 7.753906 -1.058594 C 7.011719 -1.058594 6.300781 -1.140625 5.648438 -1.28125 C 4.320312 -1.582031 3.277344 -1.945312 2.277344 -2.5 Z M 1.867188 -0.441406 "/></g></g></g></svg>