<svg xmlns="http://www.w3.org/2000/svg" xmlns:xlink="http://www.w3.org/1999/xlink" width="500" zoomAndPan="magnify" viewBox="0 0 375 374.999991" height="500" preserveAspectRatio="xMidYMid meet" version="1.0"><defs><g/><clipPath id="e3c8753895"><path d="M 135 107.496094 L 247 107.496094 L 247 207 L 135 207 Z M 135 107.496094 " clip-rule="nonzero"/></clipPath></defs><path fill="#f36933" d="M 139.832031 145.644531 C 146.703125 124.382812 163.421875 113.09375 180.765625 110.699219 C 174.910156 117.863281 171.332031 127.238281 171.332031 137.539062 C 171.332031 160.011719 188.238281 178.230469 209.101562 178.230469 C 220.78125 178.230469 231.222656 172.507812 238.152344 163.53125 C 233.40625 189.632812 201.242188 210.460938 178.039062 209.324219 C 142.335938 207.574219 127.933594 182.453125 139.832031 145.644531 Z M 139.832031 145.644531 " fill-opacity="1" fill-rule="nonzero"/><g clip-path="url(#e3c8753895)"><path fill="#000000" d="M 139.40625 206.195312 C 139.949219 206.195312 141.199219 206.007812 141.984375 204.445312 C 147.507812 193.933594 157.210938 196.542969 162.710938 199.183594 C 163.382812 199.761719 164.015625 200.074219 164.503906 200.316406 C 164.707031 200.414062 164.914062 200.480469 165.136719 200.519531 C 178.292969 207.476562 195.910156 207.429688 212.417969 200.367188 C 225.828125 194.914062 238.273438 184.460938 246.503906 171.695312 C 247.105469 170.765625 246.964844 169.539062 246.167969 168.773438 C 245.375 168.007812 244.148438 167.902344 243.238281 168.539062 C 239.433594 171.195312 235.644531 173.746094 231.203125 175.695312 C 215.730469 182.722656 200.261719 183.304688 188.136719 177.472656 C 205.078125 164.027344 219.320312 147.015625 229.976562 133.488281 C 232.199219 130.785156 234.542969 127.949219 236.144531 125.054688 C 236.691406 124.058594 236.441406 122.816406 235.554688 122.117188 C 234.65625 121.414062 233.390625 121.457031 232.5625 122.226562 C 224.566406 129.5625 213.773438 137.894531 204.71875 144.382812 C 208.300781 140.085938 211.46875 136.066406 213.964844 132.792969 C 224.617188 118.863281 224.445312 118.695312 222.847656 117.109375 C 221.949219 116.21875 220.472656 116.226562 219.570312 117.117188 C 196.132812 140.550781 173.925781 154.941406 170.5 157.105469 C 170.40625 156.78125 170.332031 156.476562 170.277344 156.203125 C 166.726562 141.660156 170.660156 125.421875 181.046875 111.550781 C 181.710938 110.667969 181.65625 109.441406 180.921875 108.621094 C 180.1875 107.796875 178.976562 107.609375 178.027344 108.160156 C 152.398438 123.183594 138.253906 151.375 144.398438 175.199219 C 144.441406 175.34375 144.492188 175.484375 144.550781 175.621094 C 135.347656 187.441406 134.863281 200.207031 136.726562 204.25 C 137.523438 205.976562 138.839844 206.191406 139.367188 206.199219 C 139.378906 206.195312 139.390625 206.195312 139.40625 206.195312 Z M 137.878906 202.316406 C 137.878906 202.320312 137.875 202.324219 137.875 202.332031 C 137.875 202.324219 137.878906 202.320312 137.878906 202.316406 Z M 234.894531 179.085938 C 227.984375 186.511719 219.539062 192.480469 210.625 196.101562 C 195.199219 202.71875 178.851562 202.75 166.878906 196.210938 C 166.644531 196.082031 166.394531 195.992188 166.128906 195.953125 C 165.941406 195.851562 165.796875 195.75 165.652344 195.609375 C 165.476562 195.4375 165.273438 195.289062 165.050781 195.179688 C 161.125 193.238281 148.75 188.3125 140.488281 198.335938 C 140.625 193.613281 142.324219 185.546875 148.902344 177.574219 C 149.480469 176.871094 149.59375 175.894531 149.191406 175.074219 C 149.070312 174.601562 148.972656 174.226562 148.816406 173.847656 C 144.058594 155.003906 153.273438 133.109375 171.21875 118.496094 C 164.707031 131.066406 162.703125 144.71875 165.753906 157.210938 C 165.980469 158.351562 166.480469 159.933594 167.097656 161.460938 C 167.347656 162.078125 167.839844 162.550781 168.464844 162.769531 C 169.089844 162.992188 169.773438 162.9375 170.351562 162.625 C 171.1875 162.164062 171.878906 161.738281 172.539062 161.28125 C 173.792969 160.503906 187.355469 151.960938 204.550781 137.269531 C 199.945312 142.976562 194.636719 149.183594 189.207031 154.804688 C 188.40625 155.640625 188.335938 156.925781 189.042969 157.835938 C 189.75 158.746094 191.027344 158.996094 192.023438 158.421875 C 197.53125 155.25 208.65625 147.5625 219.460938 139.175781 C 209.332031 151.460938 196.824219 165.148438 182.515625 175.96875 C 181.902344 176.433594 181.5625 177.171875 181.605469 177.9375 C 181.644531 178.707031 182.0625 179.402344 182.71875 179.800781 C 196.546875 188.125 214.90625 188.175781 233.082031 179.917969 C 233.699219 179.652344 234.304688 179.367188 234.894531 179.085938 Z M 146.632812 174.621094 L 146.585938 174.621094 Z M 146.632812 174.621094 " fill-opacity="1" fill-rule="nonzero"/></g><g fill="#000000" fill-opacity="1"><g transform="translate(7.209668, 254.675911)"><g><path d="M 2.664062 -0.632812 C 3.386719 -0.382812 4.179688 -0.15625 5.035156 0.046875 C 6.503906 0.382812 8.515625 0.722656 10.839844 0.722656 C 14.296875 0.722656 16.917969 -0.25 18.65625 -1.875 C 20.371094 -3.5 21.253906 -5.78125 21.253906 -8.378906 C 21.253906 -10.523438 20.394531 -12.265625 19.0625 -13.777344 C 17.730469 -15.289062 16.011719 -16.554688 14.25 -17.730469 C 12.488281 -18.902344 10.75 -20.011719 9.417969 -21.207031 C 8.085938 -22.382812 7.226562 -23.648438 7.226562 -25.160156 C 7.226562 -26.449219 7.792969 -27.578125 8.785156 -28.367188 C 9.757812 -29.15625 11.132812 -29.632812 12.761719 -29.632812 C 13.597656 -29.632812 14.363281 -29.542969 15.019531 -29.339844 C 16.351562 -28.953125 17.277344 -28.414062 17.84375 -27.984375 C 18.113281 -27.757812 18.292969 -27.621094 18.382812 -27.578125 L 18.882812 -30.582031 C 18.40625 -30.828125 17.886719 -31.03125 17.277344 -31.234375 C 16.214844 -31.574219 14.703125 -31.890625 12.804688 -31.890625 C 9.554688 -31.890625 7.160156 -31.078125 5.578125 -29.65625 C 3.996094 -28.230469 3.207031 -26.222656 3.207031 -23.78125 C 3.207031 -21.726562 4.089844 -20.054688 5.375 -18.585938 C 6.664062 -17.121094 8.402344 -15.855469 10.140625 -14.65625 C 11.878906 -13.460938 13.617188 -12.308594 14.90625 -11.042969 C 16.195312 -9.78125 17.074219 -8.402344 17.074219 -6.777344 C 17.074219 -5.535156 16.578125 -4.222656 15.582031 -3.230469 C 14.589844 -2.214844 13.078125 -1.511719 11.066406 -1.511719 C 10.003906 -1.511719 8.988281 -1.625 8.0625 -1.828125 C 6.164062 -2.257812 4.675781 -2.777344 3.253906 -3.570312 Z M 2.664062 -0.632812 "/></g></g></g><g fill="#000000" fill-opacity="1"><g transform="translate(30.735355, 254.675911)"><g><path d="M 33.878906 0 C 34.058594 -0.769531 34.285156 -1.648438 34.53125 -2.664062 C 34.960938 -4.382812 35.617188 -6.84375 36.496094 -9.9375 L 39.75 -21.183594 C 40.089844 -22.425781 40.449219 -23.625 40.8125 -24.820312 C 41.511719 -27.191406 42.121094 -29.179688 42.753906 -31.167969 L 39.117188 -31.167969 C 38.960938 -30.355469 38.757812 -29.429688 38.554688 -28.390625 C 38.167969 -26.605469 37.628906 -24.167969 36.902344 -21.183594 L 32.546875 -5.015625 L 24.1875 -25.769531 L 21.660156 -25.722656 L 15.492188 -10.976562 C 15.042969 -9.960938 14.589844 -8.945312 14.160156 -7.949219 C 13.710938 -6.933594 13.257812 -5.941406 12.828125 -4.921875 C 12.398438 -6.550781 11.902344 -8.492188 11.359375 -10.59375 C 10.796875 -12.671875 10.207031 -14.90625 9.667969 -17.074219 C 9.101562 -19.21875 8.558594 -21.296875 8.109375 -23.128906 C 7.40625 -25.949219 6.980469 -27.960938 6.730469 -29.269531 C 6.59375 -29.925781 6.503906 -30.398438 6.460938 -30.714844 L 6.390625 -31.167969 L 0.269531 -31.167969 C 0.519531 -30.558594 0.789062 -29.765625 1.085938 -28.839844 C 1.605469 -27.214844 2.328125 -24.777344 3.296875 -21.273438 L 9.078125 0 L 13.890625 0 C 13.890625 -0.0664062 13.980469 -0.316406 14.183594 -0.769531 C 14.320312 -1.105469 14.523438 -1.605469 14.769531 -2.304688 C 15.019531 -2.980469 15.3125 -3.792969 15.675781 -4.71875 C 16.375 -6.59375 17.277344 -8.964844 18.339844 -11.585938 L 21.660156 -19.355469 L 24.933594 -11.132812 C 25.949219 -8.515625 26.761719 -6.300781 27.394531 -4.472656 C 28.027344 -2.640625 28.570312 -1.152344 29.023438 0 Z M 33.878906 0 "/></g></g></g><g fill="#000000" fill-opacity="1"><g transform="translate(73.745349, 254.675911)"><g><path d="M 4.15625 -9.9375 C 4.15625 -7.476562 4.066406 -5.015625 3.976562 -3.117188 C 3.90625 -2.011719 3.863281 -0.972656 3.816406 0 L 9.597656 0 C 9.507812 -0.972656 9.441406 -2.011719 9.371094 -3.117188 C 9.261719 -5.015625 9.167969 -7.476562 9.167969 -9.9375 L 9.167969 -15.359375 C 10.636719 -15.335938 11.878906 -15.289062 12.917969 -15.269531 C 14.972656 -15.175781 16.351562 -15.109375 17.34375 -15.019531 L 17.34375 -17.976562 C 16.847656 -17.933594 16.214844 -17.886719 15.449219 -17.84375 C 14.117188 -17.773438 12.082031 -17.707031 9.167969 -17.640625 L 9.167969 -28.910156 C 10.726562 -28.863281 12.128906 -28.796875 13.347656 -28.726562 C 15.785156 -28.570312 17.546875 -28.414062 19.015625 -28.207031 L 19.015625 -31.167969 L 3.726562 -31.167969 L 3.929688 -28.027344 C 4.042969 -26.132812 4.15625 -23.667969 4.15625 -21.164062 Z M 4.15625 -9.9375 "/></g></g></g><g fill="#000000" fill-opacity="1"><g transform="translate(94.177925, 254.675911)"><g><path d="M 14.859375 0 C 14.792969 -0.972656 14.75 -2.011719 14.703125 -3.117188 C 14.613281 -5.015625 14.542969 -7.476562 14.542969 -9.9375 L 14.542969 -28.910156 C 15.878906 -28.886719 17.074219 -28.820312 18.179688 -28.75 C 20.371094 -28.570312 22.089844 -28.414062 23.648438 -28.207031 L 23.648438 -31.167969 L 0.429688 -31.167969 L 0.429688 -28.207031 C 1.265625 -28.300781 2.191406 -28.390625 3.160156 -28.480469 C 4.855469 -28.636719 7.070312 -28.820312 9.507812 -28.910156 L 9.507812 -9.9375 C 9.507812 -7.476562 9.417969 -5.015625 9.328125 -3.117188 C 9.261719 -2.011719 9.214844 -0.972656 9.167969 0 Z M 14.859375 0 "/></g></g></g><g fill="#000000" fill-opacity="1"><g transform="translate(118.17772, 254.675911)"><g/></g></g><g fill="#000000" fill-opacity="1"><g transform="translate(131.182319, 254.675911)"><g><path d="M 4.179688 -9.9375 C 4.179688 -7.476562 4.089844 -5.015625 3.996094 -3.117188 C 3.929688 -2.011719 3.882812 -0.972656 3.839844 0 L 19.332031 0 L 19.332031 -2.957031 C 18.746094 -2.847656 17.976562 -2.734375 17.050781 -2.640625 C 15.449219 -2.484375 12.988281 -2.304688 9.371094 -2.234375 C 9.304688 -3.117188 9.28125 -4.269531 9.261719 -5.601562 C 9.238281 -6.933594 9.214844 -8.425781 9.214844 -9.9375 L 9.214844 -19.695312 C 9.214844 -21.050781 9.238281 -22.40625 9.261719 -23.78125 C 9.328125 -26.492188 9.394531 -28.773438 9.484375 -30.152344 C 9.507812 -30.828125 9.53125 -31.167969 9.53125 -31.167969 L 3.839844 -31.167969 C 3.882812 -30.175781 3.929688 -29.136719 3.996094 -28.027344 C 4.089844 -26.132812 4.179688 -23.667969 4.179688 -21.164062 Z M 4.179688 -9.9375 "/></g></g></g><g fill="#000000" fill-opacity="1"><g transform="translate(150.621496, 254.675911)"><g><path d="M 19.152344 0 L 19.152344 -2.957031 C 18.453125 -2.847656 17.640625 -2.753906 16.691406 -2.664062 C 15.042969 -2.507812 12.625 -2.304688 9.351562 -2.234375 L 9.28125 -3.773438 C 9.261719 -4.335938 9.261719 -4.96875 9.238281 -5.625 C 9.191406 -6.957031 9.167969 -8.425781 9.167969 -9.9375 L 9.167969 -15.539062 C 10.636719 -15.515625 11.878906 -15.472656 12.917969 -15.449219 C 14.972656 -15.359375 16.351562 -15.289062 17.34375 -15.199219 L 17.34375 -18.160156 C 16.847656 -18.113281 16.214844 -18.066406 15.449219 -18.023438 C 14.117188 -17.957031 12.082031 -17.886719 9.167969 -17.820312 L 9.167969 -28.910156 C 10.726562 -28.863281 12.128906 -28.796875 13.347656 -28.726562 C 15.765625 -28.570312 17.527344 -28.414062 18.996094 -28.207031 L 18.996094 -31.167969 L 3.703125 -31.167969 L 3.90625 -28.027344 C 4.019531 -26.132812 4.132812 -23.667969 4.132812 -21.164062 L 4.132812 -9.9375 C 4.132812 -7.476562 4.042969 -5.015625 3.953125 -3.117188 C 3.882812 -2.011719 3.839844 -0.972656 3.792969 0 Z M 19.152344 0 "/></g></g></g><g fill="#000000" fill-opacity="1"><g transform="translate(171.528207, 254.675911)"><g><path d="M 5.105469 -9.621094 C 4.605469 -8.445312 4.089844 -7.296875 3.570312 -6.144531 C 2.484375 -3.863281 1.582031 -1.917969 0.585938 0 L 4.539062 0 C 4.539062 -0.0898438 4.675781 -0.496094 4.945312 -1.242188 L 6.03125 -4.109375 C 6.933594 -6.460938 8.175781 -9.621094 9.53125 -12.964844 C 10.230469 -13.03125 11.316406 -13.078125 13.371094 -13.078125 L 16.417969 -13.078125 C 17.527344 -13.078125 18.363281 -13.054688 18.996094 -13.03125 C 19.625 -13.007812 20.078125 -12.964844 20.441406 -12.941406 L 20.664062 -12.355469 C 21.027344 -11.449219 21.386719 -10.523438 21.75 -9.574219 C 22.449219 -7.65625 23.082031 -5.804688 23.625 -4.179688 C 24.144531 -2.550781 24.550781 -1.308594 24.753906 -0.585938 L 24.890625 0 L 31.417969 0 C 30.988281 -0.8125 30.535156 -1.738281 30.039062 -2.777344 C 29.203125 -4.5625 28.097656 -6.980469 26.921875 -9.960938 L 18.339844 -31.371094 L 14.339844 -31.007812 Z M 19.582031 -15.269531 C 18.859375 -15.246094 18.046875 -15.222656 16.441406 -15.222656 L 11.472656 -15.222656 C 11.042969 -15.222656 10.683594 -15.246094 10.390625 -15.269531 L 15.109375 -26.605469 Z M 19.582031 -15.269531 "/></g></g></g><g fill="#000000" fill-opacity="1"><g transform="translate(203.520426, 254.675911)"><g><path d="M 29.472656 -0.632812 C 28.976562 -0.789062 28.390625 -1.21875 27.710938 -1.964844 C 27.148438 -2.597656 26.425781 -3.5 25.589844 -4.855469 C 24.753906 -6.210938 23.804688 -7.996094 22.722656 -10.34375 C 21.976562 -12.082031 20.800781 -13.550781 19.511719 -14.65625 C 18.226562 -15.765625 16.804688 -16.511719 15.539062 -16.847656 C 17.640625 -17.121094 19.445312 -17.820312 20.710938 -19.015625 C 21.976562 -20.191406 22.722656 -21.886719 22.722656 -24.121094 C 22.722656 -25.589844 22.335938 -26.988281 21.523438 -28.097656 C 20.710938 -29.179688 19.492188 -30.039062 17.84375 -30.488281 C 15.832031 -31.144531 14.046875 -31.324219 12.308594 -31.324219 C 11.429688 -31.324219 10.546875 -31.304688 9.667969 -31.257812 C 8.785156 -31.191406 7.835938 -31.167969 6.867188 -31.167969 L 3.75 -31.167969 L 3.953125 -28.027344 C 4.042969 -26.132812 4.15625 -23.667969 4.15625 -21.164062 L 4.15625 -11.40625 C 4.15625 -10.503906 4.15625 -9.597656 4.132812 -8.695312 C 4.109375 -6.867188 4.066406 -5.148438 4.019531 -3.679688 C 3.976562 -2.214844 3.929688 -1.105469 3.882812 -0.472656 C 3.863281 -0.15625 3.839844 0 3.839844 0 L 9.621094 0 C 9.53125 -0.972656 9.464844 -2.011719 9.394531 -3.117188 C 9.28125 -5.015625 9.191406 -7.476562 9.191406 -9.9375 L 9.191406 -29.113281 C 9.53125 -29.113281 9.847656 -29.113281 10.117188 -29.136719 C 10.660156 -29.136719 11.132812 -29.15625 11.585938 -29.179688 L 12.285156 -29.179688 C 13.933594 -29.113281 15.359375 -28.796875 16.375 -27.984375 C 17.367188 -27.171875 17.976562 -25.859375 17.976562 -23.78125 C 17.976562 -22.066406 17.480469 -20.847656 16.757812 -20.011719 C 16.035156 -19.175781 15.085938 -18.699219 14.136719 -18.429688 C 13.191406 -18.160156 12.242188 -18.113281 11.609375 -18.113281 L 10.75 -18.113281 L 11.359375 -16.058594 C 12.015625 -16.011719 12.691406 -15.765625 13.414062 -15.3125 C 14.027344 -14.929688 14.726562 -14.339844 15.449219 -13.460938 C 16.171875 -12.558594 16.9375 -11.359375 17.660156 -9.757812 C 18.632812 -7.316406 19.738281 -5.148438 21.003906 -3.457031 C 22.269531 -1.738281 23.667969 -0.519531 25.273438 0 C 26.242188 0.25 27.078125 0.363281 27.824219 0.292969 C 28.074219 0.269531 28.300781 0.226562 28.503906 0.179688 C 28.886719 0.113281 29.15625 0 29.359375 -0.0898438 Z M 29.472656 -0.632812 "/></g></g></g><g fill="#000000" fill-opacity="1"><g transform="translate(232.216334, 254.675911)"><g><path d="M 30.039062 0 L 29.902344 -2.664062 C 29.835938 -4.382812 29.765625 -6.867188 29.765625 -9.960938 L 29.765625 -20.417969 C 29.765625 -21.457031 29.765625 -22.496094 29.789062 -23.554688 C 29.8125 -25.632812 29.859375 -27.554688 29.878906 -29.15625 C 29.902344 -29.949219 29.902344 -30.625 29.902344 -31.167969 L 26.289062 -31.167969 C 26.378906 -30.195312 26.46875 -29.113281 26.558594 -27.894531 C 26.71875 -25.816406 26.875 -22.855469 26.988281 -19.242188 L 27.171875 -7.386719 C 26.921875 -7.589844 26.582031 -7.925781 26.152344 -8.402344 C 25.273438 -9.304688 24.097656 -10.613281 22.699219 -12.195312 C 21.296875 -13.777344 19.71875 -15.539062 18.089844 -17.4375 L 15.652344 -20.238281 C 12.804688 -23.535156 9.6875 -27.171875 6.277344 -31.167969 L 3.882812 -31.167969 L 4.019531 -28.503906 C 4.089844 -26.785156 4.15625 -24.324219 4.15625 -21.230469 L 4.15625 -10.796875 C 4.15625 -9.757812 4.15625 -8.71875 4.132812 -7.65625 C 4.109375 -5.554688 4.066406 -3.636719 4.042969 -2.03125 C 4.019531 -1.21875 4.019531 -0.542969 4.019531 0 L 7.632812 0 L 7.566406 -0.972656 C 7.5 -1.605469 7.453125 -2.460938 7.386719 -3.570312 C 7.25 -5.738281 7.070312 -8.71875 6.957031 -11.949219 L 6.796875 -23.128906 C 7.113281 -22.925781 7.65625 -22.449219 8.425781 -21.683594 C 9.167969 -20.914062 10.074219 -19.964844 11.113281 -18.859375 C 13.191406 -16.601562 15.71875 -13.777344 18.160156 -10.976562 C 21.027344 -7.703125 24.167969 -4.042969 27.621094 0 Z M 30.039062 0 "/></g></g></g><g fill="#000000" fill-opacity="1"><g transform="translate(266.127643, 254.675911)"><g><path d="M 4.15625 -9.9375 C 4.15625 -7.476562 4.066406 -5.015625 3.976562 -3.117188 C 3.90625 -2.011719 3.863281 -0.972656 3.816406 0 L 9.507812 0 C 9.441406 -0.972656 9.394531 -2.011719 9.328125 -3.117188 C 9.238281 -5.015625 9.167969 -7.476562 9.167969 -9.9375 L 9.167969 -21.164062 C 9.167969 -22.40625 9.191406 -23.625 9.214844 -24.820312 C 9.28125 -27.191406 9.394531 -29.179688 9.507812 -31.167969 L 3.816406 -31.167969 C 3.863281 -30.175781 3.90625 -29.136719 3.976562 -28.027344 C 4.066406 -26.132812 4.15625 -23.667969 4.15625 -21.164062 Z M 4.15625 -9.9375 "/></g></g></g><g fill="#000000" fill-opacity="1"><g transform="translate(279.470909, 254.675911)"><g><path d="M 30.039062 0 L 29.902344 -2.664062 C 29.835938 -4.382812 29.765625 -6.867188 29.765625 -9.960938 L 29.765625 -20.417969 C 29.765625 -21.457031 29.765625 -22.496094 29.789062 -23.554688 C 29.8125 -25.632812 29.859375 -27.554688 29.878906 -29.15625 C 29.902344 -29.949219 29.902344 -30.625 29.902344 -31.167969 L 26.289062 -31.167969 C 26.378906 -30.195312 26.46875 -29.113281 26.558594 -27.894531 C 26.71875 -25.816406 26.875 -22.855469 26.988281 -19.242188 L 27.171875 -7.386719 C 26.921875 -7.589844 26.582031 -7.925781 26.152344 -8.402344 C 25.273438 -9.304688 24.097656 -10.613281 22.699219 -12.195312 C 21.296875 -13.777344 19.71875 -15.539062 18.089844 -17.4375 L 15.652344 -20.238281 C 12.804688 -23.535156 9.6875 -27.171875 6.277344 -31.167969 L 3.882812 -31.167969 L 4.019531 -28.503906 C 4.089844 -26.785156 4.15625 -24.324219 4.15625 -21.230469 L 4.15625 -10.796875 C 4.15625 -9.757812 4.15625 -8.71875 4.132812 -7.65625 C 4.109375 -5.554688 4.066406 -3.636719 4.042969 -2.03125 C 4.019531 -1.21875 4.019531 -0.542969 4.019531 0 L 7.632812 0 L 7.566406 -0.972656 C 7.5 -1.605469 7.453125 -2.460938 7.386719 -3.570312 C 7.25 -5.738281 7.070312 -8.71875 6.957031 -11.949219 L 6.796875 -23.128906 C 7.113281 -22.925781 7.65625 -22.449219 8.425781 -21.683594 C 9.167969 -20.914062 10.074219 -19.964844 11.113281 -18.859375 C 13.191406 -16.601562 15.71875 -13.777344 18.160156 -10.976562 C 21.027344 -7.703125 24.167969 -4.042969 27.621094 0 Z M 30.039062 0 "/></g></g></g><g fill="#000000" fill-opacity="1"><g transform="translate(313.382218, 254.675911)"><g><path d="M 27.035156 -30.265625 C 26.46875 -30.558594 25.769531 -30.828125 24.933594 -31.078125 C 23.488281 -31.507812 21.386719 -31.890625 18.496094 -31.890625 C 13.867188 -31.890625 9.597656 -30.601562 6.460938 -27.914062 C 3.320312 -25.226562 1.355469 -21.164062 1.355469 -15.5625 C 1.355469 -10.59375 3.140625 -6.503906 6.164062 -3.703125 C 9.191406 -0.878906 13.484375 0.722656 18.566406 0.722656 C 19.941406 0.722656 21.253906 0.609375 22.496094 0.382812 C 24.980469 -0.046875 27.011719 -0.566406 28.933594 -1.378906 C 28.839844 -2.101562 28.773438 -3.003906 28.707031 -4.179688 C 28.617188 -5.351562 28.59375 -6.707031 28.59375 -7.90625 L 28.59375 -15.855469 L 20.417969 -16.125 L 20.417969 -13.617188 C 20.800781 -13.6875 21.34375 -13.753906 22.15625 -13.777344 L 23.601562 -13.84375 C 23.625 -11.675781 23.738281 -9.394531 23.828125 -7.429688 C 23.917969 -5.441406 24.03125 -3.726562 24.144531 -2.710938 C 23.578125 -2.460938 22.765625 -2.191406 21.773438 -1.941406 C 20.753906 -1.695312 19.558594 -1.511719 18.179688 -1.511719 C 14.65625 -1.535156 11.835938 -3.160156 9.871094 -5.714844 C 7.882812 -8.265625 6.796875 -11.765625 6.796875 -15.628906 C 6.796875 -18.972656 7.542969 -21.636719 8.71875 -23.714844 C 9.890625 -25.792969 11.496094 -27.261719 13.257812 -28.230469 C 15.019531 -29.203125 16.917969 -29.632812 18.65625 -29.632812 C 19.964844 -29.632812 21.09375 -29.496094 22.066406 -29.246094 C 23.984375 -28.726562 25.339844 -28.097656 26.402344 -27.191406 Z M 27.035156 -30.265625 "/></g></g></g><g fill="#000000" fill-opacity="1"><g transform="translate(344.245572, 254.675911)"><g><path d="M 2.664062 -0.632812 C 3.386719 -0.382812 4.179688 -0.15625 5.035156 0.046875 C 6.503906 0.382812 8.515625 0.722656 10.839844 0.722656 C 14.296875 0.722656 16.917969 -0.25 18.65625 -1.875 C 20.371094 -3.5 21.253906 -5.78125 21.253906 -8.378906 C 21.253906 -10.523438 20.394531 -12.265625 19.0625 -13.777344 C 17.730469 -15.289062 16.011719 -16.554688 14.25 -17.730469 C 12.488281 -18.902344 10.75 -20.011719 9.417969 -21.207031 C 8.085938 -22.382812 7.226562 -23.648438 7.226562 -25.160156 C 7.226562 -26.449219 7.792969 -27.578125 8.785156 -28.367188 C 9.757812 -29.15625 11.132812 -29.632812 12.761719 -29.632812 C 13.597656 -29.632812 14.363281 -29.542969 15.019531 -29.339844 C 16.351562 -28.953125 17.277344 -28.414062 17.84375 -27.984375 C 18.113281 -27.757812 18.292969 -27.621094 18.382812 -27.578125 L 18.882812 -30.582031 C 18.40625 -30.828125 17.886719 -31.03125 17.277344 -31.234375 C 16.214844 -31.574219 14.703125 -31.890625 12.804688 -31.890625 C 9.554688 -31.890625 7.160156 -31.078125 5.578125 -29.65625 C 3.996094 -28.230469 3.207031 -26.222656 3.207031 -23.78125 C 3.207031 -21.726562 4.089844 -20.054688 5.375 -18.585938 C 6.664062 -17.121094 8.402344 -15.855469 10.140625 -14.65625 C 11.878906 -13.460938 13.617188 -12.308594 14.90625 -11.042969 C 16.195312 -9.78125 17.074219 -8.402344 17.074219 -6.777344 C 17.074219 -5.535156 16.578125 -4.222656 15.582031 -3.230469 C 14.589844 -2.214844 13.078125 -1.511719 11.066406 -1.511719 C 10.003906 -1.511719 8.988281 -1.625 8.0625 -1.828125 C 6.164062 -2.257812 4.675781 -2.777344 3.253906 -3.570312 Z M 2.664062 -0.632812 "/></g></g></g></svg>