<svg xmlns="http://www.w3.org/2000/svg" xmlns:xlink="http://www.w3.org/1999/xlink" width="500" zoomAndPan="magnify" viewBox="0 0 375 374.999991" height="500" preserveAspectRatio="xMidYMid meet" version="1.0"><path fill="#f36933" d="M 39.824219 146.859375 C 61.035156 81.207031 112.632812 46.355469 166.175781 38.953125 C 148.105469 61.074219 137.058594 90.027344 137.058594 121.824219 C 137.058594 191.21875 189.242188 247.464844 253.628906 247.464844 C 289.683594 247.464844 321.914062 229.800781 343.296875 202.078125 C 328.652344 282.675781 229.378906 346.984375 157.753906 343.46875 C 47.5625 338.066406 3.097656 260.496094 39.824219 146.859375 Z M 39.824219 146.859375 " fill-opacity="1" fill-rule="nonzero"/><path fill="#000000" d="M 38.511719 333.808594 C 40.195312 333.808594 44.050781 333.238281 46.476562 328.40625 C 63.519531 295.953125 93.464844 304.011719 110.449219 312.15625 C 112.519531 313.945312 114.476562 314.917969 115.976562 315.660156 C 116.601562 315.960938 117.246094 316.160156 117.929688 316.289062 C 158.539062 337.765625 212.921875 337.625 263.863281 315.816406 C 305.257812 298.980469 343.667969 266.699219 369.074219 227.285156 C 370.929688 224.414062 370.503906 220.628906 368.03125 218.269531 C 365.59375 215.898438 361.808594 215.582031 358.996094 217.539062 C 347.25 225.742188 335.558594 233.617188 321.84375 239.632812 C 274.097656 261.339844 226.351562 263.128906 188.925781 245.121094 C 241.210938 203.605469 285.175781 151.089844 318.0625 109.316406 C 324.925781 100.972656 332.164062 92.210938 337.101562 83.28125 C 338.785156 80.207031 338.015625 76.363281 335.273438 74.207031 C 332.507812 72.035156 328.59375 72.175781 326.039062 74.550781 C 301.359375 97.199219 268.046875 122.921875 240.097656 142.957031 C 251.160156 129.695312 260.9375 117.277344 268.644531 107.175781 C 301.519531 64.160156 300.988281 63.644531 296.066406 58.742188 C 293.28125 56 288.730469 56.027344 285.945312 58.773438 C 213.605469 131.125 145.0625 175.554688 134.488281 182.242188 C 134.203125 181.242188 133.972656 180.300781 133.800781 179.457031 C 122.839844 134.554688 134.988281 84.410156 167.046875 41.582031 C 169.085938 38.867188 168.914062 35.078125 166.660156 32.535156 C 164.390625 29.992188 160.652344 29.417969 157.726562 31.121094 C 78.621094 77.507812 34.957031 164.550781 53.925781 238.105469 C 54.054688 238.546875 54.210938 238.992188 54.398438 239.40625 C 25.992188 275.902344 24.496094 315.316406 30.246094 327.804688 C 32.703125 333.136719 36.769531 333.792969 38.398438 333.824219 C 38.425781 333.808594 38.46875 333.808594 38.511719 333.808594 Z M 33.800781 321.832031 C 33.800781 321.847656 33.785156 321.863281 33.785156 321.875 C 33.785156 321.863281 33.800781 321.847656 33.800781 321.832031 Z M 333.25 250.109375 C 311.910156 273.03125 285.84375 291.464844 258.339844 302.640625 C 210.722656 323.074219 160.265625 323.175781 123.3125 302.984375 C 122.582031 302.582031 121.8125 302.3125 121 302.183594 C 120.414062 301.867188 119.972656 301.554688 119.527344 301.125 C 118.988281 300.597656 118.359375 300.140625 117.671875 299.796875 C 105.554688 293.808594 67.359375 278.589844 41.851562 309.542969 C 42.28125 294.964844 47.519531 270.058594 67.828125 245.433594 C 69.613281 243.261719 69.957031 240.25 68.714844 237.71875 C 68.34375 236.261719 68.042969 235.101562 67.558594 233.933594 C 52.871094 175.753906 81.316406 108.144531 136.699219 63.03125 C 116.601562 101.84375 110.421875 144 119.84375 182.570312 C 120.542969 186.085938 122.082031 190.972656 123.980469 195.691406 C 124.753906 197.589844 126.28125 199.046875 128.207031 199.734375 C 130.132812 200.421875 132.246094 200.25 134.03125 199.277344 C 136.613281 197.863281 138.742188 196.546875 140.78125 195.132812 C 144.652344 192.730469 186.515625 166.351562 239.585938 120.992188 C 225.367188 138.613281 208.980469 157.777344 192.222656 175.140625 C 189.753906 177.710938 189.542969 181.683594 191.726562 184.5 C 193.910156 187.300781 197.847656 188.074219 200.917969 186.300781 C 217.917969 176.511719 252.257812 152.777344 285.601562 126.882812 C 254.34375 164.808594 215.734375 207.078125 171.570312 240.476562 C 169.6875 241.921875 168.628906 244.191406 168.757812 246.566406 C 168.886719 248.9375 170.171875 251.082031 172.199219 252.308594 C 214.875 278.019531 271.542969 278.175781 327.652344 252.679688 C 329.550781 251.851562 331.421875 250.980469 333.25 250.109375 Z M 60.820312 236.316406 L 60.679688 236.316406 Z M 60.820312 236.316406 " fill-opacity="1" fill-rule="nonzero"/></svg>